<?xml version="1.0" standalone="no"?><!DOCTYPE svg PUBLIC "-//W3C//DTD SVG 1.1//EN" "http://www.w3.org/Graphics/SVG/1.1/DTD/svg11.dtd"><svg t="1624323839093" class="icon" viewBox="0 0 1088 1024" version="1.1" xmlns="http://www.w3.org/2000/svg" p-id="2395" xmlns:xlink="http://www.w3.org/1999/xlink" width="51" height="48"><defs><style type="text/css"></style></defs><path d="M553.472 3.2l1.984 0.192 1.92 0.384 1.92 0.512 1.856 0.576 1.792 0.768 1.728 0.832 1.664 1.024 1.6 1.088 1.472 1.216 1.472 1.28 1.28 1.472 1.28 1.472 1.152 1.6 1.024 1.728 0.896 1.792 129.792 280.192 0.896 1.728 0.96 1.664 1.088 1.664 1.216 1.536 1.28 1.472 1.344 1.344 1.472 1.28 1.536 1.216 1.664 1.088 1.664 1.024 1.728 0.896 1.792 0.768 1.856 0.64 1.856 0.512 1.92 0.448 1.92 0.256 306.56 36.864 1.984 0.32 1.92 0.448 1.92 0.576 1.792 0.704 1.792 0.832 1.664 0.96 1.664 1.088 1.536 1.152 1.408 1.28 1.344 1.408 1.28 1.472 1.152 1.6 1.088 1.6 0.896 1.728 0.832 1.856 0.704 1.856 0.512 1.92 0.448 1.984 0.256 1.92 0.128 1.984-0.064 1.92-0.128 1.92-0.256 1.92-0.448 1.92-0.576 1.856-0.64 1.792-0.832 1.792-0.96 1.664-1.024 1.664-1.216 1.6-1.28 1.472-1.408 1.408-226.368 210.048-1.408 1.344-1.28 1.472-1.216 1.536-1.088 1.6-1.024 1.664-0.832 1.792-0.832 1.792-0.64 1.792-0.512 1.92-0.448 1.856-0.32 1.984-0.192 1.92v1.92l0.064 1.984 0.192 1.92 0.32 1.92 59.648 302.976 0.32 1.984 0.192 1.984v1.984l-0.128 1.92-0.192 1.984-0.384 1.856-0.512 1.856-0.704 1.856-0.768 1.792-0.832 1.728-1.024 1.6-1.152 1.6-1.28 1.536-1.344 1.408-1.472 1.344-1.536 1.216-1.664 1.152-1.728 0.96-1.792 0.832-1.792 0.768-1.856 0.576-1.92 0.448-1.92 0.32-1.92 0.192h-1.92l-1.92-0.064-1.92-0.192-1.92-0.384-1.92-0.512-1.856-0.64-1.856-0.768-1.792-0.896-269.696-150.4-1.728-0.896-1.792-0.768-1.792-0.704-1.92-0.512-1.856-0.448-1.92-0.32-1.984-0.192-1.92-0.064-1.984 0.064-1.92 0.192-1.92 0.32-1.92 0.448-1.856 0.512-1.856 0.704-1.792 0.768-1.728 0.896-269.696 150.4-1.792 0.896-1.792 0.768-1.92 0.64-1.856 0.512-1.92 0.384-1.92 0.192-1.92 0.064h-1.984l-1.92-0.192-1.92-0.32-1.856-0.448-1.856-0.576-1.856-0.768-1.728-0.832-1.728-0.96-1.664-1.152-1.6-1.216-1.472-1.344-1.344-1.408-1.216-1.536-1.152-1.6-1.024-1.6L228.48 960l-0.768-1.792-0.64-1.856-0.512-1.856-0.384-1.856-0.256-1.984-0.128-1.92 0.064-1.984 0.128-1.984 0.32-1.984 59.712-302.976 0.32-1.92 0.192-1.92 0.064-1.984-0.064-1.92-0.192-1.92-0.256-1.984-0.448-1.856-0.576-1.92-0.64-1.792-0.768-1.792-0.896-1.792-1.024-1.664-1.088-1.6-1.152-1.536-1.344-1.472-1.408-1.344L50.368 401.344l-1.408-1.408-1.28-1.472-1.152-1.6-1.088-1.664-0.96-1.664-0.768-1.792-0.704-1.792-0.512-1.856-0.448-1.92-0.32-1.92-0.128-1.92v-1.92l0.128-1.984 0.256-1.92 0.384-1.984 0.576-1.92 0.64-1.856 0.832-1.856 0.96-1.728 1.024-1.6 1.152-1.6 1.28-1.472 1.344-1.408 1.472-1.28 1.536-1.152 1.6-1.088 1.728-0.96 1.728-0.832 1.856-0.704 1.856-0.576 1.92-0.448 1.984-0.32 306.624-36.864 1.92-0.256 1.92-0.448 1.856-0.512 1.856-0.64 1.792-0.768 1.728-0.896 1.664-1.024 1.6-1.088 1.536-1.216 1.472-1.28 1.408-1.344 1.28-1.472 1.152-1.536 1.088-1.664 1.024-1.664 0.896-1.728L526.464 19.136 527.36 17.344l1.024-1.728 1.152-1.6 1.216-1.472 1.344-1.472 1.408-1.28 1.536-1.216 1.6-1.088 1.664-1.024 1.728-0.832 1.792-0.768 1.856-0.576 1.856-0.512 1.984-0.384 1.92-0.192 2.048-0.064 1.984 0.064z m-99.2 323.904l-2.24 4.48-3.008 5.248-3.392 4.992-3.648 4.736-3.968 4.544-4.288 4.288-4.48 3.968-4.8 3.712-4.992 3.392-5.184 3.008-5.376 2.752-5.504 2.368-5.632 1.984-5.824 1.664-5.888 1.28-4.928 0.768-229.568 27.648 169.472 157.248 3.584 3.52 4.032 4.48 3.712 4.736 3.392 4.992 3.072 5.12 2.688 5.376 2.432 5.504 2.048 5.696 1.664 5.824 1.344 5.824 0.896 6.016 0.576 5.952 0.128 6.016-0.192 6.016-0.576 5.952-0.832 4.928-44.672 226.88L506.24 765.44l4.48-2.304 5.504-2.432 5.632-2.048 5.76-1.664 5.888-1.344 5.952-0.96 5.952-0.576 6.08-0.192 6.016 0.192 6.016 0.576 5.952 0.96 5.824 1.344 5.76 1.664 5.632 2.048 5.568 2.432 4.416 2.304 201.984 112.576-44.736-226.816-0.768-4.992-0.64-5.952-0.192-6.016 0.192-6.016 0.512-5.952 0.96-5.952 1.28-5.888 1.728-5.824 2.048-5.696 2.368-5.504 2.752-5.376 3.072-5.12 3.392-4.992 3.712-4.736 3.968-4.48 3.584-3.52 169.472-157.248-229.568-27.648-4.928-0.768-5.888-1.28-5.76-1.664-5.696-1.984-5.504-2.368-5.376-2.752-5.184-3.008-4.992-3.392-4.736-3.712-4.544-3.968-4.224-4.288-3.968-4.544-3.648-4.736-3.392-4.992-3.072-5.248-2.24-4.416-97.152-209.792-97.216 209.728z" fill="#666666" p-id="2396"></path></svg>